<?xml version="1.0" encoding="UTF-8"?>
<svg width="1718px" height="1081px" viewBox="0 0 1718 1081" version="1.1" xmlns="http://www.w3.org/2000/svg" xmlns:xlink="http://www.w3.org/1999/xlink">
    <title>Group</title>
    <defs>
        <radialGradient cx="2.1761915%" cy="100%" fx="2.1761915%" fy="100%" r="162.589638%" gradientTransform="translate(0.021762,1.000000),scale(0.628682,1.000000),rotate(-42.157495),translate(-0.021762,-1.000000)" id="radialGradient-1">
            <stop stop-color="#4B2C66" offset="0%"></stop>
            <stop stop-color="#B20A62" offset="33.8423295%"></stop>
            <stop stop-color="#CA1634" offset="61.1396416%"></stop>
            <stop stop-color="#E2294B" offset="100%"></stop>
        </radialGradient>
        <radialGradient cx="100%" cy="97.0725788%" fx="100%" fy="97.0725788%" r="179.641592%" gradientTransform="translate(1.000000,0.970726),scale(0.661570,1.000000),rotate(-147.291302),translate(-1.000000,-0.970726)" id="radialGradient-2">
            <stop stop-color="#C89101" offset="0%"></stop>
            <stop stop-color="#8DA8CD" offset="100%"></stop>
        </radialGradient>
        <radialGradient cx="-3.68151461e-14%" cy="-2.669992e-14%" fx="-3.68151461e-14%" fy="-2.669992e-14%" r="199.143794%" gradientTransform="translate(-0.000000,-0.000000),scale(0.550502,1.000000),rotate(24.193513),translate(0.000000,0.000000)" id="radialGradient-3">
            <stop stop-color="#8DA8CD" offset="0%"></stop>
            <stop stop-color="#11679C" offset="100%"></stop>
        </radialGradient>
        <radialGradient cx="93.8001478%" cy="100%" fx="93.8001478%" fy="100%" r="115.1156%" gradientTransform="translate(0.938001,1.000000),scale(0.435851,1.000000),rotate(-143.618128),translate(-0.938001,-1.000000)" id="radialGradient-4">
            <stop stop-color="#106598" offset="0%"></stop>
            <stop stop-color="#177BAD" offset="100%"></stop>
        </radialGradient>
    </defs>
    <g id="Page-1" stroke="none" stroke-width="1" fill="none" fill-rule="evenodd">
        <g id="Group" transform="translate(-0.000000, 0.746777)">
            <path d="M6.71957908e-13,1080 L1717.03054,1080 L1717.03054,676.43246 C1659.91097,572.224705 1604.52194,507.166971 1550.86345,481.259259 C1311.15232,365.520496 1018.65882,324.359289 840.415904,209.122563 C763.546483,159.425328 707.268025,89.8955807 671.580529,0.533321546 L6.71957908e-13,0.533321546 L6.71957908e-13,1080 Z" id="Path-2" fill="url(#radialGradient-1)"></path>
            <path d="M1717.03054,697.984625 L1717.03054,428.099248 C1646.19768,395.141639 1596.24495,368.861547 1567.17233,349.258973 C1417.1437,248.100311 1282.24465,156.580979 1171.09506,98.9830854 C1053.07083,37.8227495 990.138902,5.48311927 940.347191,0.533321546 C933.194039,-0.177773849 917.056552,-0.177773849 891.93473,0.533321546 L662.29828,0.533321546 C657.674119,58.1771915 704.682273,120.802861 803.322743,188.41033 C951.283448,289.821533 1061.23816,308.670329 1171.09506,349.258973 C1280.95195,389.847617 1341.66195,391.76447 1406.81314,428.099248 C1552.81389,509.523779 1656.21969,599.485571 1717.03054,697.984625 Z" id="Path" fill="url(#radialGradient-2)"></path>
            <path d="M1717.03054,191.362634 C1601.61842,160.581799 1502.77648,127.262284 1420.5047,91.4040887 C1338.23293,55.5458935 1291.13087,25.2556378 1279.19852,0.533321546 L940.347191,0.533321546 C991.542079,71.7943093 1081.86313,143.055297 1211.31036,214.316285 C1340.75758,285.577272 1509.33098,356.83826 1717.03054,428.099248 L1717.03054,191.362634 Z" id="Path-3" fill="url(#radialGradient-3)"></path>
            <path d="M1717.03054,0.533321546 L1717.03054,191.362634 C1614.50308,168.900079 1524.35717,141.544632 1446.59281,109.296294 C1394.19561,87.567539 1339.19054,61.9683681 1306.73866,36.6021854 C1296.26467,28.4151331 1287.08462,16.3921785 1279.19852,0.533321546 L1717.03054,0.533321546 Z" id="Path-4" fill="url(#radialGradient-4)"></path>
        </g>
    </g>
</svg>